<?xml version="1.0" encoding="utf-8" standalone="no"?>
<!DOCTYPE svg PUBLIC "-//W3C//DTD SVG 1.1//EN"
  "http://www.w3.org/Graphics/SVG/1.1/DTD/svg11.dtd">
<svg xmlns:xlink="http://www.w3.org/1999/xlink" width="720pt" height="432pt" viewBox="0 0 720 432" xmlns="http://www.w3.org/2000/svg" version="1.1">
 <metadata>
  <rdf:RDF xmlns:dc="http://purl.org/dc/elements/1.1/" xmlns:cc="http://creativecommons.org/ns#" xmlns:rdf="http://www.w3.org/1999/02/22-rdf-syntax-ns#">
   <cc:Work>
    <dc:type rdf:resource="http://purl.org/dc/dcmitype/StillImage"/>
    <dc:date>2025-08-13T13:15:40.799673</dc:date>
    <dc:format>image/svg+xml</dc:format>
    <dc:creator>
     <cc:Agent>
      <dc:title>Matplotlib v3.9.3, https://matplotlib.org/</dc:title>
     </cc:Agent>
    </dc:creator>
   </cc:Work>
  </rdf:RDF>
 </metadata>
 <defs>
  <style type="text/css">*{stroke-linejoin: round; stroke-linecap: butt}</style>
 </defs>
 <g id="figure_1">
  <g id="patch_1">
   <path d="M 0 432 
L 720 432 
L 720 0 
L 0 0 
z
" style="fill: #ffffff"/>
  </g>
  <g id="axes_1">
   <g id="patch_2">
    <path d="M 90 384.48 
L 648 384.48 
L 648 51.84 
L 90 51.84 
z
" style="fill: #ffffff"/>
   </g>
   <g id="matplotlib.axis_1">
    <g id="xtick_1"/>
    <g id="xtick_2"/>
    <g id="xtick_3"/>
    <g id="xtick_4"/>
    <g id="xtick_5"/>
    <g id="xtick_6"/>
    <g id="text_1">
     <!-- $E\mu$ -->
     <g transform="translate(362.65 396.058125) scale(0.1 -0.1)">
      <defs>
       <path id="DejaVuSans-Oblique-45" d="M 1081 4666 
L 4031 4666 
L 3928 4134 
L 1606 4134 
L 1338 2753 
L 3566 2753 
L 3463 2222 
L 1234 2222 
L 909 531 
L 3284 531 
L 3181 0 
L 172 0 
L 1081 4666 
z
" transform="scale(0.015625)"/>
       <path id="DejaVuSans-Oblique-3bc" d="M -84 -1331 
L 856 3500 
L 1434 3500 
L 1009 1322 
Q 997 1256 987 1175 
Q 978 1094 978 1013 
Q 978 722 1161 565 
Q 1344 409 1684 409 
Q 2147 409 2431 671 
Q 2716 934 2816 1459 
L 3213 3500 
L 3788 3500 
L 3266 809 
Q 3253 750 3248 706 
Q 3244 663 3244 628 
Q 3244 531 3283 486 
Q 3322 441 3406 441 
Q 3438 441 3492 456 
Q 3547 472 3647 513 
L 3559 50 
Q 3422 -19 3297 -55 
Q 3172 -91 3053 -91 
Q 2847 -91 2730 40 
Q 2613 172 2613 403 
Q 2438 153 2195 31 
Q 1953 -91 1625 -91 
Q 1334 -91 1117 43 
Q 900 178 831 397 
L 494 -1331 
L -84 -1331 
z
" transform="scale(0.015625)"/>
      </defs>
      <use xlink:href="#DejaVuSans-Oblique-45" transform="translate(0 0.09375)"/>
      <use xlink:href="#DejaVuSans-Oblique-3bc" transform="translate(63.183594 0.09375)"/>
     </g>
    </g>
   </g>
   <g id="matplotlib.axis_2">
    <g id="ytick_1">
     <g id="text_2">
      <!-- 0 -->
      <g transform="translate(76.6375 373.159219) scale(0.1 -0.1)">
       <defs>
        <path id="DejaVuSans-30" d="M 2034 4250 
Q 1547 4250 1301 3770 
Q 1056 3291 1056 2328 
Q 1056 1369 1301 889 
Q 1547 409 2034 409 
Q 2525 409 2770 889 
Q 3016 1369 3016 2328 
Q 3016 3291 2770 3770 
Q 2525 4250 2034 4250 
z
M 2034 4750 
Q 2819 4750 3233 4129 
Q 3647 3509 3647 2328 
Q 3647 1150 3233 529 
Q 2819 -91 2034 -91 
Q 1250 -91 836 529 
Q 422 1150 422 2328 
Q 422 3509 836 4129 
Q 1250 4750 2034 4750 
z
" transform="scale(0.015625)"/>
       </defs>
       <use xlink:href="#DejaVuSans-30"/>
      </g>
     </g>
    </g>
    <g id="ytick_2">
     <g id="text_3">
      <!-- 1 -->
      <g transform="translate(76.6375 64.58779) scale(0.1 -0.1)">
       <defs>
        <path id="DejaVuSans-31" d="M 794 531 
L 1825 531 
L 1825 4091 
L 703 3866 
L 703 4441 
L 1819 4666 
L 2450 4666 
L 2450 531 
L 3481 531 
L 3481 0 
L 794 0 
L 794 531 
z
" transform="scale(0.015625)"/>
       </defs>
       <use xlink:href="#DejaVuSans-31"/>
      </g>
     </g>
    </g>
    <g id="text_4">
     <!-- $\mathcal{P}_z/(N\mu/V)$ -->
     <g transform="translate(70.5375 241.16) rotate(-90) scale(0.1 -0.1)">
      <defs>
       <path id="STIXNonUnicode-Italic-e23c" d="M 1856 4237 
L 2490 4237 
Q 3014 4237 3385 4189 
Q 3757 4141 3981 4057 
Q 4205 3974 4329 3840 
Q 4454 3706 4496 3562 
Q 4538 3418 4538 3213 
Q 4538 3008 4480 2800 
Q 4422 2592 4249 2342 
Q 4077 2093 3808 1904 
Q 3539 1715 3075 1587 
Q 2611 1459 2010 1459 
L 2067 1613 
Q 2912 1696 3395 2121 
Q 3878 2547 3878 3187 
Q 3878 3622 3622 3801 
Q 3366 3981 2739 3981 
Q 2579 3981 2512 3904 
Q 2445 3827 2381 3597 
L 1574 762 
Q 1357 0 352 0 
L 403 154 
Q 595 154 700 317 
Q 806 480 928 902 
L 1498 2854 
Q 1690 3533 1690 3661 
Q 1690 3770 1626 3824 
Q 1562 3878 1395 3878 
Q 1203 3878 1017 3817 
Q 832 3757 739 3699 
Q 646 3642 508 3533 
Q 371 3424 358 3418 
L 243 3539 
Q 973 4237 1856 4237 
z
" transform="scale(0.015625)"/>
       <path id="DejaVuSans-Oblique-7a" d="M 744 3500 
L 3475 3500 
L 3372 2975 
L 738 459 
L 2913 459 
L 2822 0 
L -19 0 
L 84 525 
L 2719 3041 
L 653 3041 
L 744 3500 
z
" transform="scale(0.015625)"/>
       <path id="DejaVuSans-2f" d="M 1625 4666 
L 2156 4666 
L 531 -594 
L 0 -594 
L 1625 4666 
z
" transform="scale(0.015625)"/>
       <path id="DejaVuSans-28" d="M 1984 4856 
Q 1566 4138 1362 3434 
Q 1159 2731 1159 2009 
Q 1159 1288 1364 580 
Q 1569 -128 1984 -844 
L 1484 -844 
Q 1016 -109 783 600 
Q 550 1309 550 2009 
Q 550 2706 781 3412 
Q 1013 4119 1484 4856 
L 1984 4856 
z
" transform="scale(0.015625)"/>
       <path id="DejaVuSans-Oblique-4e" d="M 1081 4666 
L 1931 4666 
L 3219 666 
L 4000 4666 
L 4616 4666 
L 3706 0 
L 2853 0 
L 1569 4025 
L 788 0 
L 172 0 
L 1081 4666 
z
" transform="scale(0.015625)"/>
       <path id="DejaVuSans-Oblique-56" d="M 1319 0 
L 500 4666 
L 1119 4666 
L 1797 653 
L 4063 4666 
L 4750 4666 
L 2053 0 
L 1319 0 
z
" transform="scale(0.015625)"/>
       <path id="DejaVuSans-29" d="M 513 4856 
L 1013 4856 
Q 1481 4119 1714 3412 
Q 1947 2706 1947 2009 
Q 1947 1309 1714 600 
Q 1481 -109 1013 -844 
L 513 -844 
Q 928 -128 1133 580 
Q 1338 1288 1338 2009 
Q 1338 2731 1133 3434 
Q 928 4138 513 4856 
z
" transform="scale(0.015625)"/>
      </defs>
      <use xlink:href="#STIXNonUnicode-Italic-e23c" transform="translate(0 0.125)"/>
      <use xlink:href="#DejaVuSans-Oblique-7a" transform="translate(67.657028 -16.28125) scale(0.7)"/>
      <use xlink:href="#DejaVuSans-2f" transform="translate(107.134567 0.125)"/>
      <use xlink:href="#DejaVuSans-28" transform="translate(140.825974 0.125)"/>
      <use xlink:href="#DejaVuSans-Oblique-4e" transform="translate(179.839645 0.125)"/>
      <use xlink:href="#DejaVuSans-Oblique-3bc" transform="translate(254.644333 0.125)"/>
      <use xlink:href="#DejaVuSans-2f" transform="translate(318.26738 0.125)"/>
      <use xlink:href="#DejaVuSans-Oblique-56" transform="translate(351.958786 0.125)"/>
      <use xlink:href="#DejaVuSans-29" transform="translate(420.366989 0.125)"/>
     </g>
    </g>
   </g>
   <g id="line2d_1">
    <path d="M 115.363636 369.36 
L 120.446529 318.670563 
L 123.496265 290.238286 
L 126.546001 264.224856 
L 128.579158 248.439267 
L 130.612316 233.959709 
L 132.645473 220.780632 
L 134.67863 208.85746 
L 136.711787 198.118104 
L 138.744944 188.473411 
L 140.778102 179.825821 
L 142.811259 172.075965 
L 144.844416 165.127319 
L 146.877573 158.889196 
L 148.910731 153.278428 
L 150.943888 148.220089 
L 152.977045 143.647558 
L 155.010202 139.502165 
L 157.043359 135.73259 
L 159.076517 132.294149 
L 162.126253 127.673933 
L 165.175988 123.602827 
L 168.225724 119.992155 
L 171.27546 116.770177 
L 174.325196 113.878611 
L 177.374932 111.269851 
L 180.424668 108.904768 
L 184.490982 106.075221 
L 188.557296 103.559666 
L 192.623611 101.308722 
L 196.689925 99.28279 
L 201.772818 97.018463 
L 206.855711 95.005705 
L 212.955183 92.86714 
L 219.054655 90.980167 
L 226.170705 89.041258 
L 233.286755 87.336355 
L 241.419384 85.623594 
L 250.568592 83.943029 
L 260.734378 82.323836 
L 271.916743 80.785603 
L 284.115686 79.340034 
L 297.331208 77.992721 
L 312.579887 76.662504 
L 329.861723 75.383561 
L 349.176717 74.177888 
L 371.541447 73.00898 
L 396.955912 71.906055 
L 426.436692 70.852437 
L 461.000364 69.84605 
L 501.663509 68.892632 
L 549.442704 68.000616 
L 606.371106 67.164437 
L 622.636364 66.96 
L 622.636364 66.96 
" clip-path="url(#p926fe262cc)" style="fill: none; stroke: #1f77b4; stroke-width: 1.5; stroke-linecap: square"/>
   </g>
   <g id="line2d_2">
    <path d="M 115.363636 369.36 
L 143.827837 340.652593 
L 159.076517 325.581749 
L 172.292039 312.820828 
L 184.490982 301.354418 
L 195.673347 291.150212 
L 205.839133 282.155658 
L 216.004919 273.449769 
L 226.170705 265.047857 
L 235.319913 257.755511 
L 244.46912 250.724319 
L 253.618328 243.957643 
L 262.767535 237.456705 
L 271.916743 231.220794 
L 281.06595 225.247475 
L 290.215158 219.53281 
L 299.364365 214.071572 
L 308.513573 208.85746 
L 317.66278 203.883298 
L 326.811988 199.141217 
L 336.977774 194.134223 
L 347.14356 189.391368 
L 357.309346 184.900306 
L 367.475132 180.648552 
L 377.640918 176.623659 
L 388.823283 172.443646 
L 400.005648 168.50732 
L 411.188012 164.799261 
L 423.386956 160.99709 
L 435.585899 157.430759 
L 448.801421 153.813475 
L 462.016943 150.432428 
L 476.249044 147.033835 
L 490.481144 143.865583 
L 505.729823 140.704122 
L 521.995081 137.57334 
L 538.260339 134.668161 
L 555.542175 131.804474 
L 573.84059 128.997793 
L 593.155584 126.260656 
L 613.487156 123.602827 
L 622.636364 122.474838 
L 622.636364 122.474838 
" clip-path="url(#p926fe262cc)" style="fill: none; stroke: #ff0000; stroke-width: 1.5; stroke-linecap: square"/>
   </g>
   <g id="patch_3">
    <path d="M 90 384.48 
L 90 51.84 
" style="fill: none; stroke: #000000; stroke-width: 0.8; stroke-linejoin: miter; stroke-linecap: square"/>
   </g>
   <g id="patch_4">
    <path d="M 648 384.48 
L 648 51.84 
" style="fill: none; stroke: #000000; stroke-width: 0.8; stroke-linejoin: miter; stroke-linecap: square"/>
   </g>
   <g id="patch_5">
    <path d="M 90 384.48 
L 648 384.48 
" style="fill: none; stroke: #000000; stroke-width: 0.8; stroke-linejoin: miter; stroke-linecap: square"/>
   </g>
   <g id="patch_6">
    <path d="M 90 51.84 
L 648 51.84 
" style="fill: none; stroke: #000000; stroke-width: 0.8; stroke-linejoin: miter; stroke-linecap: square"/>
   </g>
   <g id="legend_1">
    <g id="patch_7">
     <path d="M 97 89.19625 
L 150.801562 89.19625 
Q 152.801562 89.19625 152.801562 87.19625 
L 152.801562 58.84 
Q 152.801562 56.84 150.801562 56.84 
L 97 56.84 
Q 95 56.84 95 58.84 
L 95 87.19625 
Q 95 89.19625 97 89.19625 
z
" style="fill: #ffffff; opacity: 0.8; stroke: #cccccc; stroke-linejoin: miter"/>
    </g>
    <g id="line2d_3">
     <path d="M 99 64.938437 
L 109 64.938437 
L 119 64.938437 
" style="fill: none; stroke: #1f77b4; stroke-width: 1.5; stroke-linecap: square"/>
    </g>
    <g id="text_5">
     <!-- low -->
     <g transform="translate(127 68.438437) scale(0.1 -0.1)">
      <defs>
       <path id="DejaVuSans-6c" d="M 603 4863 
L 1178 4863 
L 1178 0 
L 603 0 
L 603 4863 
z
" transform="scale(0.015625)"/>
       <path id="DejaVuSans-6f" d="M 1959 3097 
Q 1497 3097 1228 2736 
Q 959 2375 959 1747 
Q 959 1119 1226 758 
Q 1494 397 1959 397 
Q 2419 397 2687 759 
Q 2956 1122 2956 1747 
Q 2956 2369 2687 2733 
Q 2419 3097 1959 3097 
z
M 1959 3584 
Q 2709 3584 3137 3096 
Q 3566 2609 3566 1747 
Q 3566 888 3137 398 
Q 2709 -91 1959 -91 
Q 1206 -91 779 398 
Q 353 888 353 1747 
Q 353 2609 779 3096 
Q 1206 3584 1959 3584 
z
" transform="scale(0.015625)"/>
       <path id="DejaVuSans-77" d="M 269 3500 
L 844 3500 
L 1563 769 
L 2278 3500 
L 2956 3500 
L 3675 769 
L 4391 3500 
L 4966 3500 
L 4050 0 
L 3372 0 
L 2619 2869 
L 1863 0 
L 1184 0 
L 269 3500 
z
" transform="scale(0.015625)"/>
      </defs>
      <use xlink:href="#DejaVuSans-6c"/>
      <use xlink:href="#DejaVuSans-6f" x="27.783203"/>
      <use xlink:href="#DejaVuSans-77" x="88.964844"/>
     </g>
    </g>
    <g id="line2d_4">
     <path d="M 99 79.616562 
L 109 79.616562 
L 119 79.616562 
" style="fill: none; stroke: #ff0000; stroke-width: 1.5; stroke-linecap: square"/>
    </g>
    <g id="text_6">
     <!-- high -->
     <g transform="translate(127 83.116562) scale(0.1 -0.1)">
      <defs>
       <path id="DejaVuSans-68" d="M 3513 2113 
L 3513 0 
L 2938 0 
L 2938 2094 
Q 2938 2591 2744 2837 
Q 2550 3084 2163 3084 
Q 1697 3084 1428 2787 
Q 1159 2491 1159 1978 
L 1159 0 
L 581 0 
L 581 4863 
L 1159 4863 
L 1159 2956 
Q 1366 3272 1645 3428 
Q 1925 3584 2291 3584 
Q 2894 3584 3203 3211 
Q 3513 2838 3513 2113 
z
" transform="scale(0.015625)"/>
       <path id="DejaVuSans-69" d="M 603 3500 
L 1178 3500 
L 1178 0 
L 603 0 
L 603 3500 
z
M 603 4863 
L 1178 4863 
L 1178 4134 
L 603 4134 
L 603 4863 
z
" transform="scale(0.015625)"/>
       <path id="DejaVuSans-67" d="M 2906 1791 
Q 2906 2416 2648 2759 
Q 2391 3103 1925 3103 
Q 1463 3103 1205 2759 
Q 947 2416 947 1791 
Q 947 1169 1205 825 
Q 1463 481 1925 481 
Q 2391 481 2648 825 
Q 2906 1169 2906 1791 
z
M 3481 434 
Q 3481 -459 3084 -895 
Q 2688 -1331 1869 -1331 
Q 1566 -1331 1297 -1286 
Q 1028 -1241 775 -1147 
L 775 -588 
Q 1028 -725 1275 -790 
Q 1522 -856 1778 -856 
Q 2344 -856 2625 -561 
Q 2906 -266 2906 331 
L 2906 616 
Q 2728 306 2450 153 
Q 2172 0 1784 0 
Q 1141 0 747 490 
Q 353 981 353 1791 
Q 353 2603 747 3093 
Q 1141 3584 1784 3584 
Q 2172 3584 2450 3431 
Q 2728 3278 2906 2969 
L 2906 3500 
L 3481 3500 
L 3481 434 
z
" transform="scale(0.015625)"/>
      </defs>
      <use xlink:href="#DejaVuSans-68"/>
      <use xlink:href="#DejaVuSans-69" x="63.378906"/>
      <use xlink:href="#DejaVuSans-67" x="91.162109"/>
      <use xlink:href="#DejaVuSans-68" x="154.638672"/>
     </g>
    </g>
   </g>
  </g>
 </g>
 <defs>
  <clipPath id="p926fe262cc">
   <rect x="90" y="51.84" width="558" height="332.64"/>
  </clipPath>
 </defs>
</svg>
